<svg xmlns="http://www.w3.org/2000/svg" viewBox="0 0 64 64">
  <rect width="64" height="64" rx="12" fill="#1a2332"/>
  <!-- Gear/Cog -->
  <g transform="translate(22, 32)" fill="none" stroke="#dc2626" stroke-width="3" stroke-linecap="round" stroke-linejoin="round">
    <path d="M0-14v3M0 11v3M-14 0h3M11 0h3M-9.9-9.9l2.1 2.1M7.8 7.8l2.1 2.1M9.9-9.9l-2.1 2.1M-7.8 7.8l-2.1 2.1"/>
    <circle cx="0" cy="0" r="5" fill="#dc2626"/>
    <circle cx="0" cy="0" r="2" fill="white"/>
  </g>
  <!-- Waves -->
  <g transform="translate(38, 26)" fill="none" stroke="#3b82f6" stroke-width="2.5" stroke-linecap="round">
    <path d="M0 0c2-3 4-3 6 0s4 3 6 0"/>
    <path d="M0 6c2-3 4-3 6 0s4 3 6 0"/>
    <path d="M0 12c2-3 4-3 6 0s4 3 6 0"/>
  </g>
</svg>